<svg width="261" height="261" viewBox="0 0 261 261" fill="none" xmlns="http://www.w3.org/2000/svg">
<rect width="261" height="261" rx="20" fill="#F2F2F2" fill-opacity="0.94902"/>
<path d="M28.25 230V195.091H37.7273V209.205H38.2045L48.7045 195.091H59.75L47.9545 210.636L60.0227 230H48.7045L40.8636 216.909L37.7273 221V230H28.25ZM73.3906 230.477C70.5497 230.477 68.1179 229.915 66.0952 228.79C64.0724 227.653 62.5213 226.074 61.4418 224.051C60.3622 222.017 59.8224 219.659 59.8224 216.977C59.8224 214.295 60.3622 211.943 61.4418 209.92C62.5213 207.886 64.0724 206.307 66.0952 205.182C68.1179 204.045 70.5497 203.477 73.3906 203.477C76.2315 203.477 78.6634 204.045 80.6861 205.182C82.7088 206.307 84.2599 207.886 85.3395 209.92C86.419 211.943 86.9588 214.295 86.9588 216.977C86.9588 219.659 86.419 222.017 85.3395 224.051C84.2599 226.074 82.7088 227.653 80.6861 228.79C78.6634 229.915 76.2315 230.477 73.3906 230.477ZM73.4588 223.523C74.2543 223.523 74.9418 223.256 75.5213 222.722C76.1009 222.187 76.5497 221.426 76.8679 220.438C77.1861 219.449 77.3452 218.273 77.3452 216.909C77.3452 215.534 77.1861 214.358 76.8679 213.381C76.5497 212.392 76.1009 211.631 75.5213 211.097C74.9418 210.562 74.2543 210.295 73.4588 210.295C72.6179 210.295 71.8963 210.562 71.294 211.097C70.6918 211.631 70.2315 212.392 69.9134 213.381C69.5952 214.358 69.4361 215.534 69.4361 216.909C69.4361 218.273 69.5952 219.449 69.9134 220.438C70.2315 221.426 70.6918 222.187 71.294 222.722C71.8963 223.256 72.6179 223.523 73.4588 223.523ZM103.391 230.477C100.55 230.477 98.1179 229.915 96.0952 228.79C94.0724 227.653 92.5213 226.074 91.4418 224.051C90.3622 222.017 89.8224 219.659 89.8224 216.977C89.8224 214.295 90.3622 211.943 91.4418 209.92C92.5213 207.886 94.0724 206.307 96.0952 205.182C98.1179 204.045 100.55 203.477 103.391 203.477C105.959 203.477 108.18 203.943 110.055 204.875C111.942 205.795 113.402 207.102 114.436 208.795C115.47 210.477 115.993 212.455 116.004 214.727H107.277C107.152 213.352 106.754 212.307 106.084 211.591C105.425 210.864 104.572 210.5 103.527 210.5C102.709 210.5 101.993 210.739 101.379 211.216C100.766 211.682 100.288 212.392 99.9474 213.347C99.6065 214.29 99.4361 215.477 99.4361 216.909C99.4361 218.341 99.6065 219.534 99.9474 220.489C100.288 221.432 100.766 222.142 101.379 222.619C101.993 223.085 102.709 223.318 103.527 223.318C104.22 223.318 104.834 223.159 105.368 222.841C105.902 222.511 106.334 222.034 106.663 221.409C107.004 220.773 107.209 220 107.277 219.091H116.004C115.97 221.398 115.442 223.409 114.419 225.125C113.396 226.83 111.947 228.148 110.072 229.08C108.209 230.011 105.982 230.477 103.391 230.477ZM129.295 215.273V230H119.886V195.091H128.955V208.795H129.227C129.818 207.125 130.801 205.824 132.176 204.892C133.551 203.949 135.205 203.477 137.136 203.477C138.989 203.477 140.597 203.898 141.96 204.739C143.335 205.58 144.398 206.739 145.148 208.216C145.909 209.693 146.284 211.386 146.273 213.295V230H136.864V215.273C136.875 213.977 136.551 212.96 135.892 212.222C135.244 211.483 134.318 211.114 133.114 211.114C132.352 211.114 131.682 211.284 131.102 211.625C130.534 211.955 130.091 212.432 129.773 213.057C129.466 213.67 129.307 214.409 129.295 215.273ZM159.849 230H149.622L161.145 195.091H174.099L185.622 230H175.395L167.759 204.705H167.486L159.849 230ZM157.94 216.227H177.168V223.318H157.94V216.227ZM198.462 195.091V230H188.984V195.091H198.462Z" fill="black"/>
</svg>
