<svg viewBox="0 0 38 57" fill="none" xmlns="http://www.w3.org/2000/svg" aria-hidden="true">
  <path fill="#1abcfe" d="M19 28.5h9.5a9.5 9.5 0 1 0 0-19H19v19Z" />
  <path fill="#0acf83" d="M9.5 47a9.5 9.5 0 0 0 9.5-9.5v-9H9.5A9.5 9.5 0 0 0 0 37.5 9.5 9.5 0 0 0 9.5 47Z" />
  <path fill="#ff7262" d="M19 47h9.5a9.5 9.5 0 0 0 0-19H19v19Z" />
  <path fill="#f24e1e" d="M0 18.5A9.5 9.5 0 0 0 9.5 28H19V9H9.5A9.5 9.5 0 0 0 0 18.5Z" />
  <path fill="#a259ff" d="M0 37.5A9.5 9.5 0 0 0 9.5 47H19V28H9.5A9.5 9.5 0 0 0 0 37.5Z" />
  <path fill="#1abcfe" d="M19 9h9.5a9.5 9.5 0 1 0-19 0v9H19V9Z" />
</svg>
