<svg width="32" height="32" viewBox="0 0 24 24" fill="none" xmlns="http://www.w3.org/2000/svg">
  <path
    fill="#00ADD8"
    d="M1.811 10.233c-.048 0-.048-.045 0-.085l.012-.021c.129-.192 1.4-1.932 3.817-1.932 2.31 0 3.614 1.66 3.837 1.932.036.045.009.085-.036.085h-7.63zm14.52 0c-.048 0-.048-.045 0-.085l.012-.021c.129-.192 1.4-1.932 3.817-1.932 2.31 0 3.614 1.66 3.837 1.932.036.045.009.085-.036.085h-7.63zM6.793 1.801c-.048 0-.084.036-.084.083v3.575c0 .047.036.084.084.084h10.414c.048 0 .084-.037.084-.084V1.884c0-.047-.036-.083-.084-.083H6.793zm4.906 8.255h-1.85c-.048 0-.085.037-.085.085v3.527c0 .047.038.085.085.085h1.85c.048 0 .085-.038.085-.085v-3.527c0-.048-.037-.085-.085-.085zm-3.769 0H5.981c-.048 0-.085.037-.085.085v3.527c0 .047.037.085.085.085h1.849c.048 0 .085-.038.085-.085v-3.527c0-.048-.037-.085-.085-.085zm7.538 0h-1.85c-.048 0-.085.037-.085.085v3.527c0 .047.037.085.085.085h1.85c.048 0 .085-.038.085-.085v-3.527c0-.048-.037-.085-.085-.085z"
  />
</svg>
