<svg xmlns="http://www.w3.org/2000/svg" viewBox="0 0 24 24" fill="none">
  <path
    fill="#000"
    d="M22.282 9.821a5.985 5.985 0 0 0-.516-4.91 6.046 6.046 0 0 0-6.51-2.9A6.065 6.065 0 0 0 4.981 4.18a5.985 5.985 0 0 0-3.998 2.9 6.046 6.046 0 0 0 .742 7.097 5.98 5.98 0 0 0 .511 4.911 6.051 6.051 0 0 0 6.514 2.899A5.985 5.985 0 0 0 13.064 24a6.056 6.056 0 0 0 5.971-4.082 5.995 5.995 0 0 0 3.997-2.9 6.055 6.055 0 0 0-.75-7.097zm-9.295 12.13a4.476 4.476 0 0 1-2.876-1.04l.141-.081 4.778-2.758a.795.795 0 0 0 .392-.681v-6.737l2.02 1.168a.071.071 0 0 1 .038.052v5.583a4.504 4.504 0 0 1-4.493 4.494zM3.063 18.857a4.495 4.495 0 0 1-.543-3.025l.142.085 4.783 2.759a.771.771 0 0 0 .78 0l5.843-3.369v2.332a.08.08 0 0 1-.033.061L9.74 19.95a4.5 4.5 0 0 1-6.677-4.093zM2.073 7.883a4.47 4.47 0 0 1 2.365-1.972V11.6a.766.766 0 0 0 .388.676l5.815 3.355-2.02 1.168a.076.076 0 0 1-.071 0l-4.83-2.786A4.504 4.504 0 0 1 2.073 7.883zm16.098 3.785-5.836-3.387L15.119 7.2a.076.076 0 0 1 .071 0l4.83 2.791a4.494 4.494 0 0 1-.676 8.105v-5.678a.79.79 0 0 0-.407-.667zm2.01-3.023-.141-.085-4.774-2.782a.775.775 0 0 0-.785 0L9.409 9.23V6.897a.066.066 0 0 1 .028-.061l4.83-2.787a4.5 4.5 0 0 1 6.68 4.66zm-12.64 4.135-2.02-1.164a.08.08 0 0 1-.038-.057V6.074a4.5 4.5 0 0 1 7.375-3.453l-.142.08L8.704 5.46a.795.795 0 0 0-.393.681zm1.097-2.365 2.602-1.5 2.607 1.5v2.999l-2.597 1.5-2.607-1.5z"
  />
</svg>
