<svg width="32" height="32" viewBox="0 0 32 32" fill="none" xmlns="http://www.w3.org/2000/svg">
<path d="M15.885 2.1c-7.1 0-6.651 3.072-6.651 3.072v3.168h6.751v.952H6.553S2 8.732 2 16.005c0 7.272 4.036 6.992 4.036 6.992h2.408v-3.024s-.132-4.036 3.96-4.036h6.812s3.84.064 3.84-3.648V8.196S23.085 2.1 15.885 2.1zm-3.744 1.776a1.2 1.2 0 1 1 0 2.4 1.2 1.2 0 0 1 0-2.4z" fill="#3776AB"/>
<path d="M16.115 29.9c7.1 0 6.651-3.072 6.651-3.072v-3.168h-6.751v-.952h9.432S30 23.268 30 15.995c0-7.272-4.036-6.992-4.036-6.992h-2.408v3.024s.132 4.036-3.96 4.036h-6.812s-3.84-.064-3.84 3.648v6.129S8.915 29.9 16.115 29.9zm3.744-1.776a1.2 1.2 0 1 1 0-2.4 1.2 1.2 0 0 1 0 2.4z" fill="#FFD43B"/>
</svg>
