<svg width="32" height="28" viewBox="0 0 32 28" fill="none" xmlns="http://www.w3.org/2000/svg">
<path d="M26.3104 9.07537C25.9698 8.96048 25.6264 8.85403 25.2804 8.75611C25.3385 8.52254 25.392 8.29179 25.4395 8.0651C26.2193 4.34258 25.7095 1.34363 23.9684 0.356238C22.299 -0.590344 19.5689 0.396683 16.8116 2.75662C16.5399 2.98961 16.2742 3.22933 16.0147 3.47553C15.8411 3.31182 15.6643 3.15128 15.4846 2.99401C12.5949 0.470688 9.69837 -0.592803 7.95913 0.39742C6.29125 1.34695 5.79737 4.16617 6.49937 7.69409C6.56922 8.0435 6.64808 8.3911 6.73588 8.73656C6.32588 8.85114 5.93025 8.97308 5.55162 9.1029C2.16362 10.2646 0 12.0851 0 13.9735C0 15.9238 2.32275 17.8801 5.8515 19.0662C6.13759 19.162 6.42605 19.2507 6.71663 19.3324C6.62229 19.7045 6.5385 20.0791 6.46537 20.4557C5.79612 23.9224 6.31875 26.675 7.98212 27.6185C9.70012 28.5929 12.5836 27.5915 15.3912 25.1777C15.6189 24.9815 15.8416 24.7797 16.059 24.5725C16.3399 24.8391 16.6284 25.0979 16.924 25.3487C19.6437 27.6503 22.3298 28.5796 23.9915 27.6335C25.7079 26.6563 26.2658 23.6993 25.5415 20.1017C25.4844 19.8198 25.4205 19.5394 25.3496 19.2606C25.5521 19.2016 25.7509 19.1409 25.9446 19.0777C29.6131 17.8824 32 15.9499 32 13.9735C32 12.0782 29.7665 10.2454 26.3104 9.07537ZM25.5147 17.8016C25.3396 17.8585 25.1604 17.9136 24.9772 17.967C24.5722 16.706 24.0257 15.3653 23.3569 13.98C23.9951 12.6278 24.5206 11.3041 24.9142 10.0515C25.2416 10.1446 25.5592 10.2429 25.8655 10.3465C28.8267 11.3491 30.633 12.8313 30.633 13.9735C30.633 15.19 28.6822 16.7694 25.5147 17.8016ZM24.2005 20.3628C24.5208 21.9536 24.5664 23.3919 24.3542 24.5163C24.1637 25.5267 23.7805 26.2003 23.3065 26.4701C22.2981 27.0442 20.1415 26.298 17.8156 24.3296C17.5407 24.0964 17.2724 23.8558 17.011 23.608C17.9128 22.6382 18.8139 21.5108 19.6934 20.2586C21.2404 20.1236 22.7019 19.9028 24.0273 19.6015C24.0927 19.8606 24.1504 20.1144 24.2005 20.3628ZM10.9095 26.3709C9.92425 26.713 9.1395 26.7229 8.66512 26.4539C7.65575 25.8814 7.23612 23.6712 7.8085 20.7065C7.87654 20.3562 7.95445 20.0078 8.04212 19.6617C9.35287 19.9469 10.8038 20.152 12.3544 20.2756C13.2399 21.5009 14.167 22.6271 15.1014 23.6133C14.9028 23.8022 14.6995 23.9863 14.4917 24.1655C13.2501 25.2328 12.006 25.99 10.9095 26.3709ZM6.29375 17.7941C4.73337 17.2696 3.44475 16.5879 2.5615 15.844C1.76775 15.1757 1.36713 14.5119 1.36713 13.9735C1.36713 12.8275 3.10425 11.3658 6.00163 10.3724C6.35325 10.252 6.72125 10.1382 7.10313 10.0315C7.50362 11.3125 8.02888 12.6518 8.66275 14.0062C8.02063 15.3806 7.48787 16.7413 7.0835 18.0374C6.81827 17.9627 6.55494 17.8816 6.29375 17.7941ZM7.841 7.43581C7.23962 4.41326 7.639 2.13323 8.64412 1.56098C9.71463 0.951478 12.0819 1.82049 14.577 3.99935C14.7397 4.14175 14.8998 4.28704 15.0571 4.43515C14.1274 5.41701 13.2087 6.53484 12.3311 7.75285C10.8261 7.89005 9.3855 8.11034 8.061 8.4055C7.97938 8.08419 7.90602 7.76077 7.841 7.43581ZM21.6444 10.7881C21.3315 10.2566 21.0071 9.73186 20.6712 9.21416C21.6922 9.34115 22.6705 9.50969 23.5891 9.71572C23.3134 10.5851 22.9696 11.4939 22.565 12.4258C22.2692 11.8739 21.9623 11.3279 21.6444 10.7881ZM16.0154 5.39611C16.6459 6.06794 17.2774 6.81795 17.8985 7.63177C16.6385 7.57324 15.3764 7.57299 14.1164 7.63103C14.7381 6.82471 15.375 6.07568 16.0154 5.39611ZM10.3503 10.7972C10.0363 11.3326 9.73508 11.8752 9.44687 12.4245C9.04887 11.496 8.70825 10.583 8.43013 9.70134C9.34313 9.50047 10.3168 9.33623 11.3313 9.21157C10.9917 9.73245 10.6646 10.2612 10.3503 10.7972ZM11.3604 18.8309C10.3123 18.7159 9.324 18.5601 8.41125 18.3647C8.69375 17.4672 9.04187 16.5348 9.4485 15.5864C9.73785 16.1361 10.0403 16.679 10.3556 17.2147C10.6799 17.7655 11.0156 18.3049 11.3604 18.8309ZM16.0531 22.6455C15.4051 21.9581 14.7589 21.1975 14.1278 20.3795C14.7405 20.4031 15.3651 20.4152 16 20.4152C16.6523 20.4152 17.297 20.4008 17.9316 20.373C17.3085 21.2058 16.6794 21.9674 16.0531 22.6455ZM22.5779 15.5379C23.0056 16.4968 23.3661 17.4243 23.6524 18.3064C22.7246 18.5146 21.7229 18.6823 20.6674 18.8068C21.0056 18.2795 21.3331 17.7457 21.6497 17.2055C21.9717 16.6565 22.2811 16.1005 22.5779 15.5379ZM20.4656 16.5338C19.9809 17.3619 19.4689 18.1743 18.9305 18.9697C17.9552 19.0377 16.9777 19.0714 16 19.0709C15.0041 19.0709 14.0355 19.0404 13.1027 18.9809C12.5503 18.1874 12.0285 17.3736 11.5386 16.5412C11.051 15.7133 10.5957 14.8674 10.1734 14.0055C10.5946 13.1433 11.0487 12.2971 11.5346 11.4685C12.0203 10.6397 12.5378 9.82947 13.0861 9.03935C14.0378 8.96854 15.0136 8.93166 15.9999 8.93166C16.9906 8.93166 17.9679 8.96891 18.9193 9.04021C19.462 9.82915 19.9763 10.6367 20.4611 11.4614C20.9486 12.2881 21.4087 13.1303 21.8406 13.9864C21.4131 14.8513 20.9545 15.701 20.4656 16.5338ZM23.2856 1.52078C24.3571 2.12856 24.7739 4.57947 24.1006 7.79355C24.0575 7.99876 24.0095 8.20734 23.9569 8.41927C22.6291 8.11784 21.1875 7.89374 19.6781 7.75445C18.7989 6.52304 17.8878 5.40349 16.9731 4.43429C17.2128 4.20705 17.4582 3.98571 17.7091 3.77045C20.0716 1.74857 22.2796 0.950249 23.2856 1.52078ZM16 11.1633C17.5781 11.1633 18.8575 12.4215 18.8575 13.9735C18.8575 15.5255 17.5781 16.7837 16 16.7837C14.4219 16.7837 13.1425 15.5255 13.1425 13.9735C13.1425 12.4215 14.4219 11.1633 16 11.1633Z" fill="#00D8FF"/>
</svg>
