<svg width="32" height="19" viewBox="0 0 32 19" fill="none" xmlns="http://www.w3.org/2000/svg">
<g clip-path="url(#clip0_30_300)">
<path d="M16 0C11.7333 0 9.06667 2.10563 8 6.31688C9.6 4.21126 11.4667 3.42165 13.6 3.94805C14.8171 4.24835 15.6871 5.12001 16.6501 6.08469C18.2189 7.65638 20.0344 9.47533 24 9.47533C28.2667 9.47533 30.9333 7.3697 32 3.15844C30.4 5.26407 28.5333 6.05368 26.4 5.52727C25.1829 5.22697 24.3129 4.35532 23.3499 3.39064C21.7811 1.81894 19.9656 0 16 0ZM8 9.47533C3.73333 9.47533 1.06667 11.581 0 15.7922C1.6 13.6866 3.46667 12.897 5.6 13.4234C6.81712 13.7237 7.68712 14.5953 8.65012 15.56C10.2189 17.1317 12.0344 18.9507 16 18.9507C20.2667 18.9507 22.9333 16.845 24 12.6338C22.4 14.7394 20.5333 15.529 18.4 15.0026C17.1829 14.7023 16.3129 13.8306 15.3499 12.866C13.7811 11.2943 11.9656 9.47533 8 9.47533Z" fill="url(#paint0_linear_30_300)"/>
</g>
<defs>
<linearGradient id="paint0_linear_30_300" x1="-0.88896" y1="6.06421" x2="26.5668" y2="22.103" gradientUnits="userSpaceOnUse">
<stop stop-color="#2298BD"/>
<stop offset="1" stop-color="#0ED7B5"/>
</linearGradient>
<clipPath id="clip0_30_300">
<rect width="32" height="19" fill="white"/>
</clipPath>
</defs>
</svg>
