<svg width="26" height="32" viewBox="0 0 26 32" fill="none" xmlns="http://www.w3.org/2000/svg">
<g clip-path="url(#clip0_30_311)">
<path d="M10.5026 0.00960851C6.78813 -0.117285 3.07409 1.02475 0 3.43592L2.04923 4.57806C4.48287 2.80136 7.55656 2.04 10.5026 2.16689V0.00960851Z" fill="url(#paint0_linear_30_311)"/>
<path d="M21.3888 4.83179C18.8272 2.16683 15.4972 0.517123 11.9111 0.136444V2.29373C14.9852 2.8013 17.6748 4.19722 19.8521 6.35461L21.3888 4.83179Z" fill="url(#paint1_linear_30_311)"/>
<path d="M25.9998 15.2376C25.8718 11.9382 24.591 8.6388 22.4137 5.84695L20.8765 7.36977C22.6698 9.78084 23.6945 12.4459 23.8226 15.2376H25.9998Z" fill="url(#paint2_linear_30_311)"/>
<path d="M22.4137 26.1512C24.591 23.3593 25.8718 20.0599 25.9998 16.7605H23.8226C23.6946 19.5523 22.6698 22.2173 20.8765 24.6283L22.4137 26.1512Z" fill="url(#paint3_linear_30_311)"/>
<path d="M11.9111 31.8618C15.3692 31.4811 18.8272 29.8313 21.3889 27.1664L19.8521 25.6436C17.6749 27.9279 14.8568 29.3237 11.9111 29.7044V31.8618Z" fill="url(#paint4_linear_30_311)"/>
<path d="M0 28.5623C3.07409 30.9734 6.78813 32.1155 10.5026 31.9886V29.8312C7.55656 29.9582 4.61094 29.1968 2.04923 27.4202L0 28.5623Z" fill="url(#paint5_linear_30_311)"/>
<path d="M9.91762 7.17926C11.2865 7.17926 12.55 7.41024 13.708 7.87219C14.8661 8.31925 15.8588 8.94516 16.6863 9.74993C17.5284 10.5548 18.1827 11.5011 18.649 12.5891C19.1154 13.662 19.3486 14.8245 19.3485 16.0764C19.3486 17.3282 19.1154 18.4981 18.649 19.586C18.1827 20.659 17.5284 21.5978 16.6863 22.4026C15.8589 23.2074 14.8661 23.8408 13.708 24.3028C12.55 24.7499 11.2866 24.9735 9.91772 24.9735C8.53376 24.9735 7.26274 24.7499 6.10466 24.3028C4.96137 23.8408 3.97652 23.2074 3.14909 22.4027C2.32176 21.5979 1.67498 20.659 1.20874 19.586C0.742431 18.4981 0.509277 17.3282 0.509277 16.0764C0.509277 14.8245 0.742431 13.6621 1.20874 12.5891C1.67498 11.5011 2.32176 10.5547 3.14909 9.75003C3.97652 8.9452 4.96137 8.31929 6.10466 7.87229C7.26268 7.4102 8.53404 7.17926 9.91762 7.17926ZM9.91762 11.4266C9.2708 11.4266 8.65412 11.5458 8.06756 11.7842C7.49617 12.0078 6.99201 12.3282 6.5559 12.7455C6.11973 13.1628 5.77377 13.6546 5.51804 14.2209C5.26244 14.7872 5.1346 15.4057 5.13454 16.0764C5.1346 16.747 5.26244 17.3654 5.51804 17.9318C5.77377 18.4981 6.11976 18.9899 6.556 19.4072C6.99201 19.8245 7.49617 20.1522 8.06756 20.3907C8.65412 20.6143 9.2708 20.7261 9.91762 20.726C10.5646 20.726 11.1737 20.6143 11.7451 20.3907C12.3318 20.1523 12.8432 19.8245 13.2793 19.4072C13.7307 18.9899 14.0842 18.4981 14.3398 17.9318C14.5954 17.3654 14.7232 16.747 14.7234 16.0764C14.7234 15.4057 14.5955 14.7872 14.3398 14.2209C14.0842 13.6546 13.7307 13.1628 13.2794 12.7455C12.8433 12.3283 12.3318 12.0078 11.7451 11.7842C11.1737 11.5458 10.5646 11.4266 9.91762 11.4266Z" fill="black"/>
</g>
<defs>
<linearGradient id="paint0_linear_30_311" x1="13" y1="9.15527e-05" x2="13" y2="31.9984" gradientUnits="userSpaceOnUse">
<stop stop-color="#1E90FF"/>
<stop offset="1" stop-color="#FF1E56"/>
</linearGradient>
<linearGradient id="paint1_linear_30_311" x1="12.9997" y1="1.75841e-05" x2="12.9997" y2="31.9982" gradientUnits="userSpaceOnUse">
<stop stop-color="#1E90FF"/>
<stop offset="1" stop-color="#FF1E56"/>
</linearGradient>
<linearGradient id="paint2_linear_30_311" x1="12.9997" y1="2.85496e-05" x2="12.9997" y2="31.9981" gradientUnits="userSpaceOnUse">
<stop stop-color="#1E90FF"/>
<stop offset="1" stop-color="#FF1E56"/>
</linearGradient>
<linearGradient id="paint3_linear_30_311" x1="12.9997" y1="-4.16893e-05" x2="12.9997" y2="31.9982" gradientUnits="userSpaceOnUse">
<stop stop-color="#1E90FF"/>
<stop offset="1" stop-color="#FF1E56"/>
</linearGradient>
<linearGradient id="paint4_linear_30_311" x1="12.9998" y1="5.86916e-05" x2="12.9998" y2="31.9982" gradientUnits="userSpaceOnUse">
<stop stop-color="#1E90FF"/>
<stop offset="1" stop-color="#FF1E56"/>
</linearGradient>
<linearGradient id="paint5_linear_30_311" x1="13" y1="-7.32374e-05" x2="13" y2="31.9981" gradientUnits="userSpaceOnUse">
<stop stop-color="#1E90FF"/>
<stop offset="1" stop-color="#FF1E56"/>
</linearGradient>
<clipPath id="clip0_30_311">
<rect width="26" height="32" fill="white"/>
</clipPath>
</defs>
</svg>
